<svg width="167" height="152" viewBox="0 0 167 152" fill="none" xmlns="http://www.w3.org/2000/svg">
<path fill-rule="evenodd" clip-rule="evenodd" d="M15.3411 25.1024C6.86845 27.6122 0 36.8102 0 45.6467V137.63C0 146.467 6.86844 151.596 15.3411 149.086L66.9771 133.791C67.839 122.647 69.1014 109.645 70.2152 98.1732C71.2994 87.0061 72.2428 77.2892 72.5388 72.1493C73.2761 59.35 85.1888 54.7105 91.4437 53.9114C91.4313 52.5823 91.5348 49.7462 91.859 44.2827C92.613 31.5772 104.354 23.1271 104.354 23.1271C104.354 23.1271 107.839 20.6728 113.276 18.7606V12.0928C113.276 3.25627 106.407 -1.87264 97.9348 0.637073L15.3411 25.1024Z" fill="#162C27"/>
<path fill-rule="evenodd" clip-rule="evenodd" d="M102.429 55.3891V59.5215L93.346 61.7022C88.9575 62.7557 85.2822 67.6272 84.8205 73L79.047 140.504C78.9214 141.974 79.0483 143.399 79.4196 144.687C79.7908 145.975 80.3981 147.097 81.202 147.98C82.0058 148.863 82.9884 149.487 84.0858 149.812C85.1833 150.138 86.3712 150.157 87.5724 149.868L158.428 132.857C159.629 132.569 160.817 131.98 161.914 131.128C163.012 130.275 163.994 129.179 164.798 127.91C165.602 126.641 166.209 125.228 166.58 123.762C166.952 122.296 167.079 120.809 166.953 119.4L161.179 54.6678C160.958 52.1817 159.964 50.0698 158.39 48.7395C156.816 47.4092 154.772 46.9546 152.654 47.4636L143.571 49.6443V45.5119C143.571 38.936 141.404 33.1498 137.546 29.4262C133.688 25.7025 128.456 24.3465 123 25.6563C117.544 26.9661 112.312 30.8345 108.454 36.4105C104.596 41.9865 102.429 48.8133 102.429 55.3891ZM123 33.921C119.363 34.7942 115.875 37.3731 113.303 41.0905C110.731 44.8078 109.286 49.359 109.286 53.7429V57.8753L136.714 51.2905V47.1581C136.714 42.7742 135.269 38.9167 132.697 36.4343C130.125 33.9519 126.637 33.0478 123 33.921ZM109.286 82.6695C109.286 87.0534 110.731 90.9109 113.303 93.3933C115.875 95.8758 119.363 96.7798 123 95.9066C126.637 95.0334 130.125 92.4545 132.697 88.7371C135.269 85.0198 136.714 80.4686 136.714 76.0847V71.9523C136.714 70.8563 137.075 69.7186 137.718 68.7892C138.361 67.8599 139.233 67.2151 140.142 66.9968C141.052 66.7785 141.924 67.0046 142.567 67.6252C143.21 68.2458 143.571 69.2101 143.571 70.3061V74.4385C143.571 81.0143 141.404 87.8412 137.546 93.4171C133.688 98.9931 128.456 102.862 123 104.171C117.544 105.481 112.312 104.125 108.454 100.401C104.596 96.6778 102.429 90.8916 102.429 84.3157V80.1834C102.429 79.0874 102.79 77.9496 103.433 77.0203C104.076 76.0909 104.948 75.4462 105.858 75.2279C106.767 75.0096 107.639 75.2356 108.282 75.8562C108.925 76.4768 109.286 77.4412 109.286 78.5372V82.6695Z" fill="#162C27"/>
</svg>
